M48
INCH,TZ
T1C0.020
T2C0.024
T3C0.040
T4C0.047
T5C0.079
T6C0.102
T7C0.126
%
G90
G05
T1
X009921Y007559
X010551Y007953
X011339Y007953
X011339Y005906
X012441Y003150
X013071Y002638
T2
X000787Y008937
X006693Y008937
T3
X009854Y003189
X010181Y001760
X010181Y000760
X010854Y003189
X011181Y001760
X011181Y000760
X012181Y001760
X012181Y000760
T4
X001496Y007205
X001496Y005827
X001496Y004449
X001850Y001890
X007756Y001890
T5
X009449Y006496
X009449Y004921
T6
X004803Y001890
T7
X014173Y008268
X014173Y001575
T0
M30
